<?xml version="1.0" encoding="UTF-8" standalone="no"?>
<svg
   width="456"
   height="456"
   viewBox="0 0 456 456"
   version="1.1"
   xml:space="preserve"
   style="clip-rule:evenodd;fill-rule:evenodd;stroke-linejoin:round;stroke-miterlimit:2"
   id="svg4"
   xmlns="http://www.w3.org/2000/svg"
   xmlns:svg="http://www.w3.org/2000/svg"><defs
   id="defs4" />
    
    
    
    
<g
   id="Icons"
   transform="matrix(4.8841382,0,0,4.7813271,-8.9845389,-8.2071495)"
   style="display:inline"><path
     d="M 63,14 H 51.977 C 53.6507,11.8036 53.2269,8.66623 51.0304,6.99258 48.834,5.31892 45.6967,5.74271 44.023,7.93915 42.659,9.72921 42.659,12.2099 44.023,14 H 33 c -6.0722,0.0072 -10.9928,4.9278 -11,11 v 42 c 0.0072,6.0722 4.9278,10.9928 11,11 h 9 v 5 c 0,1.1046 0.8954,2 2,2 h 3 v 7 h 2 v -7 h 3 c 1.1046,0 2,-0.8954 2,-2 v -5 h 9 C 69.0722,77.9928 73.9928,73.0722 74,67 V 25 C 73.9928,18.9278 69.0722,14.0072 63,14 Z M 45,11 c 0,-1.65685 1.3431,-3 3,-3 1.6569,0 3,1.34315 3,3 0,1.6569 -1.3431,3 -3,3 -1.6569,0 -3,-1.3431 -3,-3 z m -12,5 h 30 c 4.9683,0.0055 8.9945,4.0317 9,9 v 2 h -9 v 2 h 9 v 8 h -9 v 2 h 9 v 8 h -9 v 2 h 9 v 5.479 C 67.3,56.124 61.232,55.504 53.473,52.579 51.7727,51.9157 50.1069,51.1671 48.482,50.336 45.6741,48.7786 42.6231,47.7071 39.458,47.167 34.2027,46.491 28.8623,47.2455 24,49.351 V 25 c 0.0055,-4.9683 4.0317,-8.9945 9,-9 z m 19,67 h -8 v -5 h 8 z M 63,76 H 33 C 28.0317,75.9945 24.0055,71.9683 24,67 V 51.616 c 4.41,-2.449 10.877,-3.117 15.162,-2.475 2.9616,0.5093 5.815,1.5187 8.438,2.985 1.6822,0.8605 3.4071,1.6348 5.168,2.32 4.3085,1.786 8.902,2.7864 13.563,2.954 1.9201,0.0127 3.8312,-0.2637 5.669,-0.82 V 67 c -0.0055,4.9683 -4.0317,8.9945 -9,9 z"
     id="path1"
     style="opacity:1;fill:#ffffff" /></g></svg>
